<svg width="46" height="9" viewBox="0 0 46 9" fill="none" xmlns="http://www.w3.org/2000/svg">
<path d="M10.8187 8.09867C12.1947 8.09867 12.8827 7.55111 12.8827 6.456C12.8827 6.07911 12.7884 5.76444 12.6 5.512C12.4115 5.25956 12.1093 5.064 11.6933 4.92533C11.6187 4.904 11.5298 4.88089 11.4267 4.856C11.3235 4.82756 11.2435 4.80622 11.1867 4.792C11.1298 4.77422 11.0711 4.75289 11.0107 4.728C10.9538 4.69956 10.9129 4.66756 10.888 4.632C10.8631 4.59289 10.8507 4.54489 10.8507 4.488C10.8507 4.28889 11.0195 4.18933 11.3573 4.18933C11.7698 4.18933 12.0933 4.30489 12.328 4.536L12.5627 3.77333C12.5627 3.77333 12.5307 3.74311 12.4667 3.68267C12.1787 3.45867 11.7307 3.34667 11.1227 3.34667C10.7671 3.34667 10.4453 3.39822 10.1573 3.50133C9.86932 3.60444 9.63288 3.77156 9.44799 4.00267C9.2631 4.23022 9.17066 4.504 9.17066 4.824C9.17066 5.60622 9.58488 6.12178 10.4133 6.37067C10.7333 6.46667 10.9644 6.552 11.1067 6.62667C11.2489 6.69778 11.32 6.77956 11.32 6.872C11.32 6.968 11.2791 7.04267 11.1973 7.096C11.1191 7.14933 10.9733 7.176 10.76 7.176C10.4649 7.176 10.1751 7.13333 9.89066 7.048C9.60977 6.96267 9.40888 6.86133 9.28799 6.744L9.14932 7.60267C9.24532 7.70933 9.46399 7.81956 9.80532 7.93333C10.1467 8.04356 10.4844 8.09867 10.8187 8.09867Z" fill="black"/>
<path d="M15.6419 7.512L15.8125 7.98667H17.2739L17.1245 7.57067V5.4C17.1245 5.00889 17.0943 4.68711 17.0339 4.43467C16.9734 4.17867 16.8703 3.96889 16.7245 3.80533C16.5823 3.63822 16.3956 3.52089 16.1645 3.45333C15.9334 3.38222 15.6401 3.34667 15.2845 3.34667C14.8828 3.34667 14.4881 3.40711 14.1005 3.528C13.713 3.64533 13.3983 3.78222 13.1565 3.93867L13.4979 4.664C13.633 4.59289 13.8196 4.53244 14.0579 4.48267C14.2961 4.42933 14.5254 4.40267 14.7459 4.40267C15.0019 4.40267 15.1868 4.44711 15.3005 4.536C15.4179 4.62489 15.4765 4.77778 15.4765 4.99467V5.09067C15.3556 5.09067 15.2294 5.096 15.0979 5.10667C14.9663 5.11733 14.817 5.13867 14.6499 5.17067C14.4828 5.20267 14.3228 5.24356 14.1699 5.29333C14.0205 5.33956 13.8712 5.40533 13.7219 5.49067C13.5725 5.57244 13.4445 5.66667 13.3379 5.77333C13.2312 5.88 13.1441 6.01156 13.0765 6.168C13.009 6.32089 12.9752 6.48978 12.9752 6.67467C12.9752 7.624 13.4552 8.09867 14.4152 8.09867C14.5574 8.09867 14.6961 8.07733 14.8312 8.03467C14.9663 7.99556 15.0801 7.94756 15.1725 7.89067C15.2685 7.83378 15.3521 7.77689 15.4232 7.72C15.4979 7.66311 15.553 7.61333 15.5885 7.57067L15.6419 7.512ZM15.2205 7.16C14.9183 7.16 14.7672 6.93778 14.7672 6.49333C14.7672 6.24444 14.8312 6.06133 14.9592 5.944C15.0872 5.82311 15.2596 5.76267 15.4765 5.76267V7.04267C15.4765 7.04267 15.4659 7.05333 15.4445 7.07467C15.4232 7.09244 15.3912 7.112 15.3485 7.13333C15.3094 7.15111 15.2668 7.16 15.2205 7.16Z" fill="black"/>
<path d="M19.5293 7.98667V4.87733C19.5364 4.87022 19.5488 4.85956 19.5666 4.84533C19.5879 4.82756 19.6022 4.81511 19.6093 4.808C19.6199 4.80089 19.6342 4.79022 19.6519 4.776C19.6733 4.75822 19.6893 4.74578 19.6999 4.73867C19.7106 4.73156 19.7248 4.72267 19.7426 4.712C19.7604 4.69778 19.7764 4.68889 19.7906 4.68533C19.8048 4.67822 19.8208 4.67111 19.8386 4.664C19.8599 4.65333 19.8777 4.64622 19.8919 4.64267C19.9097 4.63911 19.9275 4.63556 19.9453 4.632C19.9666 4.62844 19.9879 4.62667 20.0093 4.62667C20.3044 4.62667 20.4466 4.79378 20.4359 5.128V7.98667H22.1959V5.28267C22.1959 5.25778 22.1977 5.224 22.2013 5.18133C22.2013 5.13867 22.2013 5.10667 22.2013 5.08533C22.2013 4.45956 22.0999 4.01333 21.8973 3.74667C21.6982 3.48 21.3551 3.34667 20.8679 3.34667C20.7293 3.34667 20.5871 3.37511 20.4413 3.432C20.2991 3.48533 20.1764 3.55111 20.0733 3.62933C19.9702 3.704 19.8759 3.78044 19.7906 3.85867C19.7088 3.93689 19.6466 4.00444 19.6039 4.06133L19.5399 4.14133V3.45333H18.6333L17.4866 3.768V4.33867L17.8066 4.536V7.98667H19.5293Z" fill="black"/>
<path d="M25.8504 7.98667H27.2104V1H26.7944L24.9064 1.26667V1.85333L25.4931 2.05067V3.66667C25.3616 3.59556 25.2051 3.53511 25.0238 3.48533C24.8424 3.43556 24.6362 3.41067 24.4051 3.41067C24.0176 3.41067 23.6869 3.51733 23.4131 3.73067C23.1393 3.944 22.9384 4.22667 22.8104 4.57867C22.6824 4.92711 22.6184 5.32533 22.6184 5.77333C22.6184 6.488 22.7553 7.04622 23.0291 7.448C23.3029 7.84978 23.7331 8.05067 24.3198 8.05067C24.4727 8.05067 24.6184 8.02933 24.7571 7.98667C24.8958 7.944 25.0113 7.89422 25.1038 7.83733C25.1962 7.78044 25.2833 7.71467 25.3651 7.64C25.4469 7.56178 25.5056 7.49778 25.5411 7.448C25.5802 7.39822 25.614 7.34844 25.6424 7.29867L25.8504 7.98667ZM25.0984 7.00533C24.9171 7.00533 24.7678 6.92 24.6504 6.74933C24.5331 6.57867 24.4744 6.32622 24.4744 5.992V5.24533C24.478 4.52 24.7162 4.15556 25.1891 4.152C25.2816 4.152 25.3829 4.16444 25.4931 4.18933V6.872C25.4291 6.91467 25.3633 6.94844 25.2958 6.97333C25.2282 6.99467 25.1624 7.00533 25.0984 7.00533Z" fill="black"/>
<path d="M29.6543 7.98667V4.87733C29.6614 4.87022 29.6738 4.85956 29.6916 4.84533C29.7129 4.82756 29.7272 4.81511 29.7343 4.808C29.7449 4.80089 29.7592 4.79022 29.7769 4.776C29.7983 4.75822 29.8143 4.74578 29.8249 4.73867C29.8356 4.73156 29.8498 4.72267 29.8676 4.712C29.8854 4.69778 29.9014 4.68889 29.9156 4.68533C29.9298 4.67822 29.9458 4.67111 29.9636 4.664C29.9849 4.65333 30.0027 4.64622 30.0169 4.64267C30.0347 4.63911 30.0525 4.63556 30.0703 4.632C30.0916 4.62844 30.1129 4.62667 30.1343 4.62667C30.4294 4.62667 30.5716 4.79378 30.5609 5.128V7.98667H32.3209V5.28267C32.3209 5.25778 32.3227 5.224 32.3263 5.18133C32.3263 5.13867 32.3263 5.10667 32.3263 5.08533C32.3263 4.45956 32.2249 4.01333 32.0223 3.74667C31.8232 3.48 31.4801 3.34667 30.9929 3.34667C30.8543 3.34667 30.7121 3.37511 30.5663 3.432C30.4241 3.48533 30.3014 3.55111 30.1983 3.62933C30.0952 3.704 30.0009 3.78044 29.9156 3.85867C29.8338 3.93689 29.7716 4.00444 29.7289 4.06133L29.6649 4.14133V3.45333H28.7583L27.6116 3.768V4.33867L27.9316 4.536V7.98667H29.6543Z" fill="black"/>
<path d="M35.1381 7.45867C34.811 7.45867 34.6474 7.12267 34.6474 6.45067V4.71733C34.6474 4.48978 34.6901 4.31378 34.7754 4.18933C34.8608 4.06489 34.9799 4.00267 35.1328 4.00267C35.4599 4.00267 35.6234 4.34933 35.6234 5.04267V6.728C35.6234 6.95556 35.5808 7.13511 35.4954 7.26667C35.4137 7.39467 35.2946 7.45867 35.1381 7.45867ZM35.0954 8.09867C35.9381 8.09867 36.555 7.90311 36.9461 7.512C37.3408 7.12089 37.5381 6.51644 37.5381 5.69867C37.5381 4.90933 37.3514 4.32089 36.9781 3.93333C36.6083 3.54222 36.0057 3.34667 35.1701 3.34667C34.3132 3.34667 33.6946 3.55111 33.3141 3.96C32.9337 4.36533 32.7434 4.96978 32.7434 5.77333C32.7434 6.584 32.9319 7.17422 33.3088 7.544C33.6857 7.91378 34.2812 8.09867 35.0954 8.09867Z" fill="black"/>
<path d="M39.3671 8.09867C39.6089 8.09867 39.8276 8.072 40.0231 8.01867C40.2222 7.96533 40.3644 7.91378 40.4498 7.864C40.5351 7.81067 40.6044 7.75733 40.6578 7.704V6.97867C40.6187 7.01067 40.5689 7.03556 40.5084 7.05333C40.448 7.07111 40.3804 7.08 40.3058 7.08C40.1351 7.08 40.0089 7.03378 39.9271 6.94133C39.8453 6.84889 39.8044 6.66044 39.8044 6.376V4.392H40.6951V3.45333H39.8204V2.21067H38.8818L38.3378 3.45333L37.7084 3.65067V4.392H38.0764V6.20533C38.0764 6.89156 38.1707 7.37867 38.3591 7.66667C38.5511 7.95467 38.8871 8.09867 39.3671 8.09867Z" fill="black"/>
<path d="M43.5607 5.22933H42.75V4.78133C42.75 4.65333 42.7535 4.54844 42.7607 4.46667C42.7713 4.38133 42.7927 4.29956 42.8247 4.22133C42.8567 4.13956 42.9064 4.08089 42.974 4.04533C43.0415 4.00622 43.1287 3.98667 43.2353 3.98667C43.3598 3.98667 43.4451 4.08089 43.4913 4.26933C43.5375 4.45778 43.5607 4.77778 43.5607 5.22933ZM43.134 8.09867C43.3473 8.09867 43.5713 8.07378 43.806 8.024C44.0407 7.97422 44.2842 7.87822 44.5367 7.736C44.7927 7.59022 44.9864 7.41067 45.118 7.19733L44.8033 6.65867C44.7038 6.75111 44.5793 6.83111 44.43 6.89867C44.2842 6.96622 44.1384 7.016 43.9927 7.048C43.8504 7.08 43.7171 7.096 43.5927 7.096C43.4647 7.096 43.3562 7.08533 43.2673 7.064C43.1784 7.04267 43.0913 7 43.006 6.936C42.9207 6.872 42.8549 6.77244 42.8087 6.63733C42.766 6.50222 42.7447 6.32978 42.7447 6.12V6.01867H45.182V5.42667C45.182 4.69778 45.0309 4.16978 44.7287 3.84267C44.4264 3.512 43.9251 3.34667 43.2247 3.34667C42.4958 3.34667 41.9287 3.55111 41.5233 3.96C41.118 4.36889 40.9153 4.97156 40.9153 5.768C40.9153 6.10222 40.9544 6.40622 41.0327 6.68C41.1109 6.95022 41.2335 7.19378 41.4007 7.41067C41.5713 7.62756 41.8024 7.79644 42.094 7.91733C42.3891 8.03822 42.7358 8.09867 43.134 8.09867Z" fill="black"/>
<path d="M4.5 0.5625C2.32559 0.5625 0.5625 2.32559 0.5625 4.5C0.5625 6.67441 2.32559 8.4375 4.5 8.4375C6.67441 8.4375 8.4375 6.67441 8.4375 4.5C8.4375 2.32559 6.67441 0.5625 4.5 0.5625ZM6.64189 5.74102L4.5 6.97852L2.35811 5.74102V3.26777L3.3249 2.70879L3.32139 2.70703H3.32314L4.5 2.03027L5.67773 2.70703H5.67598L5.67334 2.70879L6.64102 3.26777V5.74102H6.64189ZM2.70615 4.71709L3.47607 5.15566V5.98535L4.32598 6.47666V4.6125L2.70615 3.67734V4.71709ZM4.49824 3.38291L3.67383 2.90918L2.87314 3.37148L4.50088 4.31191L6.12861 3.37236L5.32529 2.9083L4.49824 3.38291ZM4.67402 6.47666L5.5292 5.98271V5.15566L6.29385 4.72061V3.67822L4.67402 4.61426V6.47666Z" fill="black"/>
</svg>
